<?xml version="1.0" standalone="no"?><!DOCTYPE svg PUBLIC "-//W3C//DTD SVG 1.1//EN" "http://www.w3.org/Graphics/SVG/1.1/DTD/svg11.dtd"><svg class="icon" width="200px" height="200.00px" viewBox="0 0 1024 1024" version="1.1" xmlns="http://www.w3.org/2000/svg"><path d="M640 554.666667c-4.266667 72.533333-59.733333 128-128 128s-123.733333-55.466667-128-128h256z m-256-4.266667v-76.8 76.8z m128 302.933333c-187.733333 0-341.333333-153.6-341.333333-341.333333s153.6-341.333333 341.333333-341.333333 341.333333 153.6 341.333333 341.333333-153.6 341.333333-341.333333 341.333333z m0-85.333333c140.8 0 256-115.2 256-256s-115.2-256-256-256-256 115.2-256 256 115.2 256 256 256z m-42.666667-384v85.333333H384V384h85.333333z m170.666667 0v85.333333h-85.333333V384h85.333333z" fill="#444444" /></svg>