<?xml version="1.0" standalone="no"?><!DOCTYPE svg PUBLIC "-//W3C//DTD SVG 1.1//EN" "http://www.w3.org/Graphics/SVG/1.1/DTD/svg11.dtd"><svg class="icon" width="200px" height="200.00px" viewBox="0 0 1024 1024" version="1.1" xmlns="http://www.w3.org/2000/svg"><path d="M512 192c155.456 0 297.04 94.736 424.752 284.224a64 64 0 0 1 2.912 66.816l-2.912 4.736-8.336 12.224C802.88 741.328 664.08 832 512 832c-155.456 0-297.04-94.736-424.752-284.224a64 64 0 0 1-2.912-66.816l2.912-4.736 8.336-12.224C221.12 282.672 359.92 192 512 192z m0 64c-125.36 0-243.44 75.2-355.376 232.448l-8.192 11.648L140.32 512l7.984 11.68C262.784 689.088 383.632 768 512 768c125.36 0 243.44-75.2 355.376-232.448l8.192-11.648 8.128-11.904-7.984-11.68C761.216 334.912 640.368 256 512 256z" fill="#aaaaaa" /><path d="M512 352c88.368 0 160 71.632 160 160s-71.632 160-160 160-160-71.632-160-160 71.632-160 160-160z m0 64a96 96 0 1 0 0 192 96 96 0 0 0 0-192z" fill="#aaaaaa" /></svg>