<svg id="Icon" xmlns="http://www.w3.org/2000/svg" width="44" height="37" viewBox="0 0 44 37">
  <defs>
    <style>
      .cls-1 {
        fill: #f4f5fd;
        fill-rule: evenodd;
      }
    </style>
  </defs>
  <path id="Path" class="cls-1" d="M901.372,5989.77a11.84,11.84,0,0,0-3.288-.48,10.426,10.426,0,0,0-4.123.84c1.037-3.75,3.526-10.2,8.485-10.93a1.183,1.183,0,0,0,.961-0.84l1.084-3.82a1.145,1.145,0,0,0-.15-0.95,1.206,1.206,0,0,0-.824-0.52,8.216,8.216,0,0,0-1.109-.07c-5.952,0-11.847,6.13-14.335,14.91-1.46,5.15-1.888,12.89,1.709,17.76a10.789,10.789,0,0,0,8.727,4.33h0.046a10.461,10.461,0,0,0,10.054-7.53,10.107,10.107,0,0,0-.957-7.83A10.406,10.406,0,0,0,901.372,5989.77Z" transform="translate(-887 -5973)"/>
  <path id="Path-2" data-name="Path" class="cls-1" d="M929.652,5994.64a10.405,10.405,0,0,0-6.281-4.87,11.838,11.838,0,0,0-3.287-.48,10.426,10.426,0,0,0-4.123.84c1.036-3.75,3.526-10.2,8.485-10.93a1.184,1.184,0,0,0,.961-0.84l1.084-3.82a1.145,1.145,0,0,0-.15-0.95,1.2,1.2,0,0,0-.824-0.52,8.216,8.216,0,0,0-1.109-.07c-5.952,0-11.847,6.13-14.335,14.91-1.46,5.15-1.888,12.89,1.709,17.76a10.789,10.789,0,0,0,8.727,4.33h0.047a10.462,10.462,0,0,0,10.054-7.53A10.12,10.12,0,0,0,929.652,5994.64Z" transform="translate(-887 -5973)"/>
</svg>
