<?xml version="1.0" encoding="UTF-8"?>
<svg width="1699px" height="1025px" viewBox="0 0 1699 1025" version="1.1" xmlns="http://www.w3.org/2000/svg" xmlns:xlink="http://www.w3.org/1999/xlink">
    <!-- Generator: Sketch 53 (72520) - https://sketchapp.com -->
    <title>Artwork</title>
    <desc>Created with Sketch.</desc>
    <defs>
        <linearGradient x1="21.4995943%" y1="55.8163413%" x2="48.503362%" y2="46.6310195%" id="linearGradient-1">
            <stop stop-color="#CCD3DC" offset="0%"></stop>
            <stop stop-color="#E8EDF4" offset="49.8548259%"></stop>
            <stop stop-color="#F5F9FF" offset="100%"></stop>
        </linearGradient>
        <linearGradient x1="65.1360165%" y1="32.7833779%" x2="50.9008912%" y2="93.9000183%" id="linearGradient-2">
            <stop stop-color="#F2F6FC" offset="0%"></stop>
            <stop stop-color="#C6D2DD" offset="100%"></stop>
        </linearGradient>
        <linearGradient x1="50%" y1="0%" x2="37.0045299%" y2="37.8103739%" id="linearGradient-3">
            <stop stop-color="#CDD6DE" offset="0%"></stop>
            <stop stop-color="#9FACBA" offset="100%"></stop>
        </linearGradient>
        <linearGradient x1="50%" y1="0%" x2="46.4030961%" y2="28.485173%" id="linearGradient-4">
            <stop stop-color="#D8E2EA" offset="0%"></stop>
            <stop stop-color="#B0C1D0" offset="100%"></stop>
        </linearGradient>
        <filter x="-72.4%" y="-84.8%" width="244.8%" height="269.6%" filterUnits="objectBoundingBox" id="filter-5">
            <feOffset dx="0" dy="43" in="SourceAlpha" result="shadowOffsetOuter1"></feOffset>
            <feGaussianBlur stdDeviation="23.5" in="shadowOffsetOuter1" result="shadowBlurOuter1"></feGaussianBlur>
            <feColorMatrix values="0 0 0 0 0.0469254805   0 0 0 0 0.2642144   0 0 0 0 0.449378189  0 0 0 0.5 0" type="matrix" in="shadowBlurOuter1" result="shadowMatrixOuter1"></feColorMatrix>
            <feMerge>
                <feMergeNode in="shadowMatrixOuter1"></feMergeNode>
                <feMergeNode in="SourceGraphic"></feMergeNode>
            </feMerge>
        </filter>
        <linearGradient x1="127.561197%" y1="0%" x2="50%" y2="100%" id="linearGradient-6">
            <stop stop-color="#FFE7C2" offset="0%"></stop>
            <stop stop-color="#FFCB8F" offset="100%"></stop>
        </linearGradient>
        <linearGradient x1="50%" y1="0.933776464%" x2="40.3788533%" y2="44.5513212%" id="linearGradient-7">
            <stop stop-color="#FFE2B9" offset="0%"></stop>
            <stop stop-color="#FFC083" offset="100%"></stop>
        </linearGradient>
        <linearGradient x1="35.0393344%" y1="71.4532304%" x2="45.4573439%" y2="31.3850892%" id="linearGradient-8">
            <stop stop-color="#FFFFFF" stop-opacity="0" offset="0%"></stop>
            <stop stop-color="#132E3C" offset="100%"></stop>
        </linearGradient>
        <polygon id="path-9" points="62.3009093 71.1036953 314.031679 132.096452 314.031679 390.8599 62.3009093 318.616559"></polygon>
        <filter x="-0.8%" y="-0.6%" width="101.6%" height="102.5%" filterUnits="objectBoundingBox" id="filter-10">
            <feOffset dx="0" dy="4" in="SourceAlpha" result="shadowOffsetOuter1"></feOffset>
            <feColorMatrix values="0 0 0 0 0.234730576   0 0 0 0 0.347048718   0 0 0 0 0.474516369  0 0 0 1 0" type="matrix" in="shadowOffsetOuter1"></feColorMatrix>
        </filter>
        <linearGradient x1="49.3104332%" y1="18.4026534%" x2="36.2001315%" y2="79.9285886%" id="linearGradient-11">
            <stop stop-color="#7B86A4" offset="0%"></stop>
            <stop stop-color="#454E6B" offset="100%"></stop>
        </linearGradient>
        <linearGradient x1="41.6556729%" y1="71.4532304%" x2="47.4663288%" y2="31.3850892%" id="linearGradient-12">
            <stop stop-color="#FFFFFF" stop-opacity="0" offset="0%"></stop>
            <stop stop-color="#132E3C" offset="100%"></stop>
        </linearGradient>
        <polygon id="path-13" points="313.652854 64.3533445 505.621115 132.096452 505.621115 390.8599 315.801161 311.866208"></polygon>
        <filter x="-1.0%" y="-0.6%" width="102.1%" height="102.5%" filterUnits="objectBoundingBox" id="filter-14">
            <feOffset dx="0" dy="4" in="SourceAlpha" result="shadowOffsetOuter1"></feOffset>
            <feColorMatrix values="0 0 0 0 0.234730576   0 0 0 0 0.347048718   0 0 0 0 0.474516369  0 0 0 1 0" type="matrix" in="shadowOffsetOuter1"></feColorMatrix>
        </filter>
        <linearGradient x1="73.8557302%" y1="41.3552731%" x2="50%" y2="65.7349467%" id="linearGradient-15">
            <stop stop-color="#F1F6FA" offset="0%"></stop>
            <stop stop-color="#DEEAF4" offset="100%"></stop>
        </linearGradient>
        <linearGradient x1="56.4902836%" y1="39.0552935%" x2="50%" y2="59.7191686%" id="linearGradient-16">
            <stop stop-color="#F1F6FA" offset="0%"></stop>
            <stop stop-color="#DEEAF4" offset="100%"></stop>
        </linearGradient>
        <polygon id="path-17" points="63.3283566 0 0 102.359037 244.77016 171.008887 315.801161 60.9945018"></polygon>
        <linearGradient x1="50%" y1="19.0448946%" x2="59.7150531%" y2="63.9154241%" id="linearGradient-19">
            <stop stop-color="#FFF1BC" offset="0%"></stop>
            <stop stop-color="#FFDF87" offset="100%"></stop>
        </linearGradient>
        <linearGradient x1="50%" y1="19.0448946%" x2="59.7150531%" y2="63.9154241%" id="linearGradient-20">
            <stop stop-color="#D1FFBC" offset="0%"></stop>
            <stop stop-color="#87FFB3" offset="100%"></stop>
        </linearGradient>
        <linearGradient x1="26.0321512%" y1="78.0069872%" x2="59.0180169%" y2="50%" id="linearGradient-21">
            <stop stop-color="#FFC7DF" offset="0%"></stop>
            <stop stop-color="#FF96BC" offset="100%"></stop>
        </linearGradient>
    </defs>
    <g id="Main-Files" stroke="none" stroke-width="1" fill="none" fill-rule="evenodd">
        <g id="46_Error-Creative" transform="translate(-1.000000, 0.000000)">
            <g id="Artwork" transform="translate(1.000000, -28.000000)">
                <g id="Wall" opacity="0.300000012">
                    <polygon id="wall" fill="url(#linearGradient-1)" points="414.294643 0.481488984 1698.26893 0.481488984 1698.26893 1181.78965 419.070234 797.285261"></polygon>
                    <polygon id="wall" fill="url(#linearGradient-2)" points="0.0242340847 2.11337477 418.700748 2.11337477 418.700748 787.908696 432.478803 809.90852 0.0242340847 986.443073"></polygon>
                </g>
                <g transform="translate(167.000000, 246.000000)">
                    <g id="Box" transform="translate(0.000000, 327.972752)">
                        <polygon id="side" fill="url(#linearGradient-3)" transform="translate(157.210886, 161.228172) scale(-1, 1) translate(-157.210886, -161.228172) " points="62.3009093 3.6001871 252.120863 71.3432945 252.120863 318.856158 64.4492165 251.11305"></polygon>
                        <polygon id="side" fill="url(#linearGradient-4)" points="251.351944 3.6001871 503.082714 64.5929437 503.082714 312.105807 251.351944 251.11305"></polygon>
                        <g id="cat" filter="url(#filter-5)" transform="translate(193.376597, 0.000000)">
                            <path d="M66.751434,11.3241483 C92.6871045,43.3248839 102.955151,65.0559169 97.5555729,76.5172473 C90.311279,91.8942356 43.3359833,91.852119 36.0641125,76.462116 C30.6439801,64.991085 40.8730872,43.2784291 66.751434,11.3241483 Z" id="Triangle" fill="url(#linearGradient-6)" transform="translate(66.803694, 49.675740) rotate(-27.000000) translate(-66.803694, -49.675740) "></path>
                            <path d="M66.7761564,29.8767543 C80.1656224,46.3973513 85.466571,57.6161446 82.6790022,63.5331342 C78.9390863,71.4716088 54.687771,71.4498659 50.9336183,63.5046723 C48.1354381,57.5826747 53.4162842,46.3733687 66.7761564,29.8767543 Z" id="Triangle-Copy-2" fill="#FBA581" transform="translate(66.803136, 49.676024) rotate(-27.000000) translate(-66.803136, -49.676024) "></path>
                            <path d="M171.027405,11.3241483 C196.963075,43.3248839 207.231121,65.0559169 201.831543,76.5172473 C194.587249,91.8942356 147.611954,91.852119 140.340083,76.462116 C134.919951,64.991085 145.149058,43.2784291 171.027405,11.3241483 Z" id="Triangle-Copy" fill="url(#linearGradient-6)" transform="translate(171.079664, 49.675740) scale(-1, 1) rotate(-27.000000) translate(-171.079664, -49.675740) "></path>
                            <path d="M171.566976,29.8767543 C184.956442,46.3973513 190.25739,57.6161446 187.469822,63.5331342 C183.729906,71.4716088 159.47859,71.4498659 155.724438,63.5046723 C152.926257,57.5826747 158.207104,46.3733687 171.566976,29.8767543 Z" id="Triangle-Copy-2" fill="#FBA581" transform="translate(171.593955, 49.676024) scale(-1, 1) rotate(-27.000000) translate(-171.593955, -49.676024) "></path>
                            <path d="M119.784282,183.542351 C147.668207,183.542351 147.615735,172.330657 163.398404,163.74897 C188.190445,150.268517 211.445192,177.773648 211.445192,145.651495 C211.445192,112.610368 195.234552,81.1500486 170.622064,62.3352102 C162.450911,56.0888305 153.353715,51.236221 143.616216,48.1822577 C136.016941,45.7989038 126.73396,47.199458 118.49055,47.199458 C108.740515,47.199458 100.639767,46.3126955 91.8255614,49.5976576 C82.2620482,53.1618787 73.3816627,58.4722827 65.4714448,65.122148 C42.8195548,84.164862 28.1233721,114.191618 28.1233721,145.651495 C28.1233721,175.245017 47.8610321,146.503875 70.3545035,160.378546 C87.8193879,171.151429 91.9003576,183.542351 119.784282,183.542351 Z" id="Oval" fill="url(#linearGradient-7)"></path>
                            <path d="M118.012082,34.9214176 C110.717516,39.4519013 103.826648,46.0106837 97.3394777,54.5977646 C102.437162,51.9004618 106.057013,48.7873025 113.913469,51.2795892 C119.151106,52.9411137 120.517311,47.4883898 118.012082,34.9214176 Z" id="Path-3" fill="#FFD29F" transform="translate(108.283711, 44.759591) scale(-1, 1) rotate(71.000000) translate(-108.283711, -44.759591) "></path>
                            <path d="M132.247973,34.921501 C124.952488,39.4529178 118.059857,46.0116091 111.570079,54.5975748 C116.668221,51.8994199 120.288868,48.7861667 128.143419,51.2743029 C133.379786,52.9330603 134.74797,47.4821264 132.247973,34.921501 Z" id="Path-3-Copy-6" fill="#FFD29F" transform="translate(122.514929, 44.759538) scale(-1, 1) rotate(52.000000) translate(-122.514929, -44.759538) "></path>
                            <g id="Group-9" transform="translate(0.000000, 82.441947)" fill="#FFC083">
                                <g id="Group-8" transform="translate(16.584463, 0.000000)">
                                    <path d="M32.8559772,0.874996839 C25.5614111,5.40286724 18.6720988,11.9603697 12.1880401,20.5475043 C17.286045,17.8522723 20.9053052,14.7399587 28.7667952,17.2389055 C34.0077886,18.9048701 35.3708492,13.4502339 32.8559772,0.874996839 Z" id="Path-3"></path>
                                    <path d="M27.8104225,13.1010497 C20.5158565,17.6289201 13.6265441,24.1864226 7.14248541,32.7735571 C12.2404903,30.0783251 15.8597505,26.9660115 23.7212405,29.4649584 C28.9622339,31.1309229 30.3252945,25.6762867 27.8104225,13.1010497 Z" id="Path-3-Copy"></path>
                                    <path d="M33.1572476,24.2987854 C18.3624153,26.1773158 8.39329756,33.6938359 3.24989427,46.8483457 C10.5938934,40.3943523 15.1866671,38.3222261 27.0370683,42.0965226 C34.9373357,44.6127202 36.9773955,38.6801412 33.1572476,24.2987854 Z" id="Path-3-Copy-2" transform="translate(19.137424, 35.573566) rotate(-14.000000) translate(-19.137424, -35.573566) "></path>
                                </g>
                                <g id="Group-7" transform="translate(29.115534, 68.571280) rotate(-26.000000) translate(-29.115534, -68.571280) translate(10.115534, 43.071280)">
                                    <path d="M32.8559772,0.874996839 C25.5614111,5.40286724 18.6720988,11.9603697 12.1880401,20.5475043 C17.286045,17.8522723 20.9053052,14.7399587 28.7667952,17.2389055 C34.0077886,18.9048701 35.3708492,13.4502339 32.8559772,0.874996839 Z" id="Path-3-Copy-5"></path>
                                    <path d="M27.8104225,13.1010497 C20.5158565,17.6289201 13.6265441,24.1864226 7.14248541,32.7735571 C12.2404903,30.0783251 15.8597505,26.9660115 23.7212405,29.4649584 C28.9622339,31.1309229 30.3252945,25.6762867 27.8104225,13.1010497 Z" id="Path-3-Copy-4"></path>
                                    <path d="M33.1572476,24.2987854 C18.3624153,26.1773158 8.39329756,33.6938359 3.24989427,46.8483457 C10.5938934,40.3943523 15.1866671,38.3222261 27.0370683,42.0965226 C34.9373357,44.6127202 36.9773955,38.6801412 33.1572476,24.2987854 Z" id="Path-3-Copy-3" transform="translate(19.137424, 35.573566) rotate(-14.000000) translate(-19.137424, -35.573566) "></path>
                                </g>
                                <g id="Group-7-Copy" transform="translate(69.245668, 72.751352) rotate(-53.000000) translate(-69.245668, -72.751352) translate(50.245668, 47.751352)">
                                    <path d="M32.8266561,0.253058732 C25.53209,4.78092914 18.6427777,11.3384316 12.158719,19.9255662 C17.2567239,17.2303342 20.8759841,14.1180206 28.7374741,16.6169674 C33.9784675,18.282932 35.3415281,12.8282958 32.8266561,0.253058732 Z" id="Path-3-Copy-5"></path>
                                    <path d="M27.7811014,12.4791116 C20.4865354,17.006982 13.597223,23.5644845 7.1131643,32.151619 C12.2111692,29.456387 15.8304294,26.3440734 23.6919194,28.8430203 C28.9329128,30.5089848 30.2959734,25.0543486 27.7811014,12.4791116 Z" id="Path-3-Copy-4"></path>
                                    <path d="M33.1279265,23.6768473 C18.3330942,25.5553777 8.36397646,33.0718978 3.22057317,46.2264076 C10.5645723,39.7724142 15.157346,37.700288 27.0077472,41.4745845 C34.9080146,43.9907821 36.9480744,38.0582031 33.1279265,23.6768473 Z" id="Path-3-Copy-3" transform="translate(19.108103, 34.951627) rotate(-14.000000) translate(-19.108103, -34.951627) "></path>
                                </g>
                                <g id="Group-7-Copy-2" transform="translate(97.947822, 98.442388) rotate(-82.000000) translate(-97.947822, -98.442388) translate(79.447822, 73.442388)">
                                    <path d="M32.4787635,0.0666699433 C25.1841974,4.59454035 18.2948851,11.1520428 11.8108264,19.7391774 C16.9088313,17.0439454 20.5280915,13.9316318 28.3895815,16.4305786 C33.6305749,18.0965432 34.9936355,12.641907 32.4787635,0.0666699433 Z" id="Path-3-Copy-5"></path>
                                    <path d="M27.4332088,12.2927228 C20.1386427,16.8205932 13.2493304,23.3780957 6.7652717,31.9652303 C11.8632766,29.2699982 15.4825368,26.1576846 23.3440268,28.6566315 C28.5850202,30.322596 29.9480808,24.8679598 27.4332088,12.2927228 Z" id="Path-3-Copy-4"></path>
                                    <path d="M32.7800339,23.4904585 C17.9852016,25.3689889 8.01608385,32.885509 2.87268056,46.0400188 C10.2166797,39.5860254 14.8094533,37.5138992 26.6598545,41.2881957 C34.560122,43.8043933 36.6001818,37.8718143 32.7800339,23.4904585 Z" id="Path-3-Copy-3" transform="translate(18.760210, 34.765239) rotate(-14.000000) translate(-18.760210, -34.765239) "></path>
                                </g>
                            </g>
                            <g id="Group-9-Copy" transform="translate(179.404206, 142.441947) scale(-1, 1) translate(-179.404206, -142.441947) translate(120.404206, 82.441947)" fill="#FFC083">
                                <g id="Group-8" transform="translate(16.584463, 0.000000)">
                                    <path d="M32.8559772,0.874996839 C25.5614111,5.40286724 18.6720988,11.9603697 12.1880401,20.5475043 C17.286045,17.8522723 20.9053052,14.7399587 28.7667952,17.2389055 C34.0077886,18.9048701 35.3708492,13.4502339 32.8559772,0.874996839 Z" id="Path-3"></path>
                                    <path d="M27.8104225,13.1010497 C20.5158565,17.6289201 13.6265441,24.1864226 7.14248541,32.7735571 C12.2404903,30.0783251 15.8597505,26.9660115 23.7212405,29.4649584 C28.9622339,31.1309229 30.3252945,25.6762867 27.8104225,13.1010497 Z" id="Path-3-Copy"></path>
                                    <path d="M33.1572476,24.2987854 C18.3624153,26.1773158 8.39329756,33.6938359 3.24989427,46.8483457 C10.5938934,40.3943523 15.1866671,38.3222261 27.0370683,42.0965226 C34.9373357,44.6127202 36.9773955,38.6801412 33.1572476,24.2987854 Z" id="Path-3-Copy-2" transform="translate(19.137424, 35.573566) rotate(-14.000000) translate(-19.137424, -35.573566) "></path>
                                </g>
                                <g id="Group-7" transform="translate(29.115534, 68.571280) rotate(-26.000000) translate(-29.115534, -68.571280) translate(10.115534, 43.071280)">
                                    <path d="M32.8559772,0.874996839 C25.5614111,5.40286724 18.6720988,11.9603697 12.1880401,20.5475043 C17.286045,17.8522723 20.9053052,14.7399587 28.7667952,17.2389055 C34.0077886,18.9048701 35.3708492,13.4502339 32.8559772,0.874996839 Z" id="Path-3-Copy-5"></path>
                                    <path d="M27.8104225,13.1010497 C20.5158565,17.6289201 13.6265441,24.1864226 7.14248541,32.7735571 C12.2404903,30.0783251 15.8597505,26.9660115 23.7212405,29.4649584 C28.9622339,31.1309229 30.3252945,25.6762867 27.8104225,13.1010497 Z" id="Path-3-Copy-4"></path>
                                    <path d="M33.1572476,24.2987854 C18.3624153,26.1773158 8.39329756,33.6938359 3.24989427,46.8483457 C10.5938934,40.3943523 15.1866671,38.3222261 27.0370683,42.0965226 C34.9373357,44.6127202 36.9773955,38.6801412 33.1572476,24.2987854 Z" id="Path-3-Copy-3" transform="translate(19.137424, 35.573566) rotate(-14.000000) translate(-19.137424, -35.573566) "></path>
                                </g>
                                <g id="Group-7-Copy" transform="translate(61.528783, 72.725095) rotate(-53.000000) translate(-61.528783, -72.725095) translate(43.028783, 47.725095)">
                                    <path d="M32.2676142,0.248193182 C24.9730482,4.77606359 18.0837358,11.3335661 11.5996771,19.9207007 C16.6976821,17.2254686 20.3169422,14.113155 28.1784322,16.6121019 C33.4194256,18.2780664 34.7824863,12.8234302 32.2676142,0.248193182 Z" id="Path-3-Copy-5"></path>
                                    <path d="M27.2220595,12.474246 C19.9274935,17.0021164 13.0381811,23.5596189 6.55412245,32.1467535 C11.6521274,29.4515215 15.2713875,26.3392079 23.1328776,28.8381547 C28.3738709,30.5041193 29.7369316,25.049483 27.2220595,12.474246 Z" id="Path-3-Copy-4"></path>
                                    <path d="M32.5688846,23.6719817 C17.7740524,25.5505122 7.8049346,33.0670322 2.66153131,46.221542 C10.0055304,39.7675487 14.5983041,37.6954224 26.4487053,41.4697189 C34.3489728,43.9859166 36.3890326,38.0533375 32.5688846,23.6719817 Z" id="Path-3-Copy-3" transform="translate(18.549061, 34.946762) rotate(-14.000000) translate(-18.549061, -34.946762) "></path>
                                </g>
                                <g id="Group-7-Copy-2" transform="translate(90.231734, 97.942812) rotate(-82.000000) translate(-90.231734, -97.942812) translate(71.731734, 72.942812)">
                                    <path d="M31.9179505,0.145161416 C24.6233844,4.67303182 17.7340721,11.2305343 11.2500134,19.8176689 C16.3480183,17.1224369 19.9672785,14.0101233 27.8287685,16.5090701 C33.0697619,18.1750347 34.4328225,12.7203984 31.9179505,0.145161416 Z" id="Path-3-Copy-5"></path>
                                    <path d="M26.8723958,12.3712142 C19.5778297,16.8990847 12.6885174,23.4565871 6.2044587,32.0437217 C11.3024636,29.3484897 14.9217238,26.2361761 22.7832138,28.7351229 C28.0242072,30.4010875 29.3872678,24.9464513 26.8723958,12.3712142 Z" id="Path-3-Copy-4"></path>
                                    <path d="M32.2192209,23.56895 C17.4243886,25.4474804 7.45527085,32.9640005 2.31186756,46.1185102 C9.65586669,39.6645169 14.2486403,37.5923907 26.0990415,41.3666872 C33.999309,43.8828848 36.0393688,37.9503058 32.2192209,23.56895 Z" id="Path-3-Copy-3" transform="translate(18.199397, 34.843730) rotate(-14.000000) translate(-18.199397, -34.843730) "></path>
                                </g>
                            </g>
                            <g id="Group-12" transform="translate(62.690710, 59.075797)">
                                <g id="Group-10" transform="translate(8.855288, 16.645021)">
                                    <ellipse id="Oval-30" stroke="#E5AB74" stroke-width="3.825" fill="#FFFFFF" cx="19.6468073" cy="20.570311" rx="17.428793" ry="18.1731582"></ellipse>
                                    <path d="M13.7603268,24.8325875 C15.1598824,18.0416251 25.1477217,17.9289391 26.9628614,24.8325875" id="Path-18" stroke="#767676" stroke-width="3.315" stroke-linecap="round"></path>
                                </g>
                                <g id="Group-11" transform="translate(66.214383, 16.645021)">
                                    <ellipse id="Oval-30-Copy" stroke="#E5AB74" stroke-width="3.825" fill="#FFFFFF" cx="19.4706661" cy="20.570311" rx="17.428793" ry="18.1731582"></ellipse>
                                    <path d="M13.5841857,24.8325875 C14.9837413,18.0416251 24.9715806,17.9289391 26.7867203,24.8325875" id="Path-18-Copy" stroke="#767676" stroke-width="3.315" stroke-linecap="round"></path>
                                </g>
                                <g id="Group-5" transform="translate(44.479686, 57.300990)">
                                    <path d="M5.82179387,10.7538056 C9.03708183,10.7538056 11.6435877,7.44373872 11.6435877,3.36056426 C11.6435877,-0.722610201 9.03708183,1.761176 5.82179387,1.761176 C2.6065059,1.761176 0.93031934,3.08268982 0.93031934,7.16586428 C0.93031934,11.2490387 2.6065059,10.7538056 5.82179387,10.7538056 Z" id="Oval-2" fill="#FFFFFF"></path>
                                    <path d="M18.8637798,10.7538056 C22.0790678,10.7538056 24.6855737,7.44373872 24.6855737,3.36056426 C24.6855737,-0.722610201 22.0790678,1.761176 18.8637798,1.761176 C15.6484918,1.761176 13.9723053,3.08268982 13.9723053,7.16586428 C13.9723053,11.2490387 15.6484918,10.7538056 18.8637798,10.7538056 Z" id="Oval-2-Copy" fill="#FFFFFF" transform="translate(19.328939, 5.892814) scale(-1, 1) translate(-19.328939, -5.892814) "></path>
                                    <path d="M13.0786885,7.60992545 C16.0586983,12.0234127 25.1439868,10.655483 24.7423237,1.60337736" id="Path-19-Copy" stroke="#E08063" stroke-width="2.9835" stroke-linecap="round" transform="translate(18.916959, 5.821641) scale(-1, 1) translate(-18.916959, -5.821641) "></path>
                                    <path d="M0.969357279,7.60992545 C3.94936711,12.0234127 13.0346556,10.655483 12.6329925,1.60337736" id="Path-19" stroke="#E08063" stroke-width="2.9835" stroke-linecap="round"></path>
                                    <path d="M8.07288749,1.04794739 L17.1952503,1.04794739" id="Line-2" stroke="#78625B" stroke-width="2.9835" stroke-linecap="round"></path>
                                </g>
                                <g id="Group-6" transform="translate(0.129373, 66.033885)" stroke="#FFFFFF" stroke-linecap="round" stroke-width="2.93249994">
                                    <path d="M29.9472171,0.375565146 C26.3451545,0.375565146 16.4166119,0.375565146 0.161589359,0.375565146" id="Path-2"></path>
                                    <path d="M29.875682,9.64977493 C27.6973772,9.64879468 21.6932087,9.64609275 11.8631763,9.64166915" id="Path-2-Copy" transform="translate(20.869429, 9.645722) rotate(-12.000000) translate(-20.869429, -9.645722) "></path>
                                </g>
                                <g id="Group-6-Copy-2" transform="translate(25.109638, 6.671774) rotate(96.000000) translate(-25.109638, -6.671774) translate(19.609638, 0.171774)" stroke="#FFFFFF" stroke-linecap="round" stroke-width="2.93249994">
                                    <path d="M8.43006782,0.305146681 C6.96402271,0.305146681 4.21297353,0.305146681 0.176920295,0.305146681" id="Path-2"></path>
                                    <path d="M10.3916434,11.3678685 C9.37510501,11.3673062 6.57317033,11.3657561 1.98583932,11.3632184" id="Path-2-Copy" transform="translate(6.188741, 11.365543) rotate(-15.000000) translate(-6.188741, -11.365543) "></path>
                                </g>
                                <g id="Group-6-Copy-3" transform="translate(86.703239, 6.712494) scale(-1, 1) rotate(96.000000) translate(-86.703239, -6.712494) translate(81.203239, 0.212494)" stroke="#FFFFFF" stroke-linecap="round" stroke-width="2.93249994">
                                    <path d="M8.43006782,0.305146681 C6.96402271,0.305146681 4.21297353,0.305146681 0.176920295,0.305146681" id="Path-2"></path>
                                    <path d="M10.3916434,11.3678685 C9.37510501,11.3673062 6.57317033,11.3657561 1.98583932,11.3632184" id="Path-2-Copy" transform="translate(6.188741, 11.365543) rotate(-15.000000) translate(-6.188741, -11.365543) "></path>
                                </g>
                                <g id="Group-6-Copy" transform="translate(100.739623, 72.533885) scale(-1, 1) translate(-100.739623, -72.533885) translate(85.739623, 66.033885)" stroke="#FFFFFF" stroke-linecap="round" stroke-width="2.93249994">
                                    <path d="M29.9472171,0.375565146 C26.3451545,0.375565146 16.4166119,0.375565146 0.161589359,0.375565146" id="Path-2"></path>
                                    <path d="M29.875682,9.64977493 C27.6973772,9.64879468 21.6932087,9.64609275 11.8631763,9.64166915" id="Path-2-Copy" transform="translate(20.869429, 9.645722) rotate(-12.000000) translate(-20.869429, -9.645722) "></path>
                                </g>
                            </g>
                        </g>
                        <polygon id="side" fill="#DEEAF4" points="62.3009093 71.1036953 314.031679 132.096452 314.031679 390.8599 62.3009093 318.616559"></polygon>
                        <g id="side" opacity="0.133718297" style="mix-blend-mode: multiply;">
                            <use fill="black" fill-opacity="1" filter="url(#filter-10)" xlink:href="#path-9"></use>
                            <use fill="url(#linearGradient-8)" fill-rule="evenodd" xlink:href="#path-9"></use>
                        </g>
                        <path d="M132.475034,292.670904 L110.333166,286.805349 L110.333166,275.831979 L126.366933,221.78342 L138.146843,224.90401 L121.458637,278.779203 L132.475034,281.697533 L132.475034,258.493427 L143.600505,261.440652 L143.600505,284.644758 L148.945094,286.060581 L148.945094,297.033952 L143.600505,295.618128 L143.600505,307.734558 L132.475034,304.787333 L132.475034,292.670904 Z M159.054552,247.245599 C159.054552,244.502243 159.509019,242.184133 160.417967,240.291199 C161.326915,238.398265 162.544888,236.892038 164.071921,235.772474 C165.598954,234.652911 167.362287,233.957933 169.361973,233.68752 C171.361659,233.417107 173.452208,233.570843 175.633684,234.148733 C177.81516,234.726623 179.90571,235.680493 181.905396,237.010371 C183.905082,238.340249 185.668415,239.969468 187.195448,241.898078 C188.722481,243.826688 189.940453,245.978215 190.849401,248.352724 C191.75835,250.727233 192.212817,253.286128 192.212817,256.029484 L192.212817,303.809367 C192.212817,306.552723 191.75835,308.870834 190.849401,310.763768 C189.940453,312.656702 188.722481,314.162928 187.195448,315.282492 C185.668415,316.402056 183.905082,317.097034 181.905396,317.367447 C179.90571,317.63786 177.81516,317.484124 175.633684,316.906234 C173.452208,316.328344 171.361659,315.374474 169.361973,314.044596 C167.362287,312.714718 165.598954,311.085498 164.071921,309.156888 C162.544888,307.228278 161.326915,305.076751 160.417967,302.702242 C159.509019,300.327733 159.054552,297.768839 159.054552,295.025483 L159.054552,247.245599 Z M170.180022,297.972707 C170.180022,299.649202 170.689026,301.17475 171.707048,302.549395 C172.72507,303.92404 174.033935,304.823242 175.633684,305.247028 C177.233433,305.670814 178.542299,305.465069 179.560321,304.629788 C180.578343,303.794508 181.087346,302.538638 181.087346,300.862143 L181.087346,253.082259 C181.087346,251.405764 180.578343,249.880217 179.560321,248.505572 C178.542299,247.130927 177.233433,246.231725 175.633684,245.807939 C174.033935,245.384153 172.72507,245.589897 171.707048,246.425178 C170.689026,247.260459 170.180022,248.516328 170.180022,250.192824 L170.180022,297.972707 Z M224.464143,317.03954 L202.322275,311.173985 L202.322275,300.200615 L218.356041,246.152056 L230.135951,249.272646 L213.447745,303.147839 L224.464143,306.066169 L224.464143,282.862063 L235.589613,285.809288 L235.589613,309.013394 L240.934202,310.429217 L240.934202,321.402587 L235.589613,319.986764 L235.589613,332.103194 L224.464143,329.155969 L224.464143,317.03954 Z" id="404" fill="url(#linearGradient-11)" opacity="0.200000003"></path>
                        <polygon id="side" fill="#D2DEE9" transform="translate(409.636984, 227.606622) scale(-1, 1) translate(-409.636984, -227.606622) " points="313.652854 64.3533445 505.621115 132.096452 505.621115 390.8599 315.801161 311.866208"></polygon>
                        <g id="side" opacity="0.133718297" style="mix-blend-mode: multiply;" transform="translate(409.636984, 227.606622) scale(-1, 1) translate(-409.636984, -227.606622) ">
                            <use fill="black" fill-opacity="1" filter="url(#filter-14)" xlink:href="#path-13"></use>
                            <use fill="url(#linearGradient-12)" fill-rule="evenodd" xlink:href="#path-13"></use>
                        </g>
                        <polygon id="lid" fill="url(#linearGradient-15)" transform="translate(442.536949, 153.328329) scale(-1, 1) translate(-442.536949, -153.328329) " points="380.250235 64.1711519 313.137248 162.165515 507.408263 242.485507 571.936649 130.370098"></polygon>
                        <g id="scratches" opacity="0.600000024" transform="translate(343.334838, 282.603830) rotate(1.000000) translate(-343.334838, -282.603830) translate(324.334838, 206.103830)" fill="#ACBBCB">
                            <polygon id="Path-4" transform="translate(9.544090, 76.716015) rotate(3.000000) translate(-9.544090, -76.716015) " points="5.13089317 23.2193941 5.012038 34.4906343 3.99638375 42.5579553 5.01031597 49.3545185 7.09441931 59.5357293 11.6505492 152.665761 11.6539172 123.594224 15.0917965 120.831943 11.6556821 108.360285 8.87051918 59.5355237 7.59381827 47.2871535 8.87248616 42.5573907 7.0973209 34.4903928 5.01594508 0.766269615"></polygon>
                            <polygon id="Path-4-Copy" transform="translate(21.366695, 83.389045) scale(-1, -1) rotate(6.000000) translate(-21.366695, -83.389045) " points="17.1138488 62.4290302 19.1972344 74.8610019 23.7556184 121.089763 23.758945 106.658714 25.6195417 111.12756 23.7606881 99.0966184 20.9741593 74.8605928 20.976102 66.4326835 19.2001003 62.4285498 17.1177078 45.6883269"></polygon>
                            <polygon id="Path-4-Copy-2" transform="translate(31.518680, 83.486194) scale(1, -1) rotate(3.000000) translate(-31.518680, -83.486194) " points="28.7645136 34.8496527 30.0530747 45.0120761 29.4073531 52.3626513 30.0515048 58.5554295 31.3756581 67.8321922 34.2681675 152.688552 34.271238 126.199776 34.0937198 117.658804 34.272847 112.319243 32.5043962 67.8320616 32.3558635 56.9741556 32.5061894 52.3622926 31.3783033 45.0119228 30.0566367 14.283837"></polygon>
                        </g>
                        <g id="lid" transform="translate(0.000000, 68.853578)">
                            <mask id="mask-18" fill="white">
                                <use xlink:href="#path-17"></use>
                            </mask>
                            <use id="Mask" fill="url(#linearGradient-16)" xlink:href="#path-17"></use>
                            <g id="Group-3-Copy" opacity="0.400000006" mask="url(#mask-18)" fill="#ACBBCB">
                                <g transform="translate(144.265254, 27.219499) scale(-1, -1) rotate(33.000000) translate(-144.265254, -27.219499) translate(125.265254, -49.280501)">
                                    <polygon id="Path-4" transform="translate(9.544090, 76.716015) rotate(3.000000) translate(-9.544090, -76.716015) " points="5.13089317 23.2193941 5.012038 34.4906343 3.99638375 42.5579553 5.01031597 49.3545185 7.09441931 59.5357293 11.6505492 152.665761 11.6539172 123.594224 15.0917965 120.831943 11.6556821 108.360285 8.87051918 59.5355237 7.59381827 47.2871535 8.87248616 42.5573907 7.0973209 34.4903928 5.01594508 0.766269615"></polygon>
                                    <polygon id="Path-4-Copy" transform="translate(21.366695, 83.389045) scale(-1, -1) rotate(6.000000) translate(-21.366695, -83.389045) " points="17.1138488 62.4290302 19.1972344 74.8610019 23.7556184 121.089763 23.758945 106.658714 25.6195417 111.12756 23.7606881 99.0966184 20.9741593 74.8605928 20.976102 66.4326835 19.2001003 62.4285498 17.1177078 45.6883269"></polygon>
                                    <polygon id="Path-4-Copy-2" transform="translate(31.518680, 83.486194) scale(1, -1) rotate(3.000000) translate(-31.518680, -83.486194) " points="28.7645136 34.8496527 30.0530747 45.0120761 29.4073531 52.3626513 30.0515048 58.5554295 31.3756581 67.8321922 34.2681675 152.688552 34.271238 126.199776 34.0937198 117.658804 34.272847 112.319243 32.5043962 67.8320616 32.3558635 56.9741556 32.5061894 52.3622926 31.3783033 45.0119228 30.0566367 14.283837"></polygon>
                                </g>
                            </g>
                        </g>
                    </g>
                    <g id="yellow" transform="translate(18.014556, 153.628938)">
                        <path d="M109.627251,8.36706068 C113.737845,12.4094668 117.241888,16.3293182 120.139381,20.1266148 C126.171191,28.0315787 127.972113,38.9579488 127.552713,39.2339032 C125.264654,40.7393885 112.182759,32.0547606 109.627251,25.0011194 C108.095223,20.7724589 108.095223,15.2277727 109.627251,8.36706068 Z" id="Path-12" fill="#FFB883"></path>
                        <path d="M0,77.7200726 C30.0691666,57.1939267 45.8325724,31.6205701 47.2902173,1.00000261 C55.1858013,-0.177575647 70.4373555,1.29173253 108.703725,7.94453668 C112.267325,8.56408686 112.582424,14.2164261 109.649021,24.9015544 C122.550584,29.6320717 128.462104,34.1381577 127.383582,38.4198124 C118.032806,75.5416915 105.662078,92.4665643 86.9918106,100.419861 C65.5753914,103.138411 36.5781212,95.5718148 0,77.7200726 Z" id="Path-9" fill="url(#linearGradient-19)"></path>
                    </g>
                    <g id="green" transform="translate(1238.125815, 59.420492) rotate(42.000000) translate(-1238.125815, -59.420492) translate(1191.625815, 22.420492)">
                        <path d="M79.6967541,6.0826808 C82.685071,9.02142682 85.2324382,11.871078 87.3388555,14.6316345 C91.7238574,20.3783804 93.0330906,28.3216265 92.7281958,28.5222396 C91.064824,29.6166964 81.5545556,23.3031508 79.6967541,18.1752989 C78.5830013,15.1011498 78.5830013,11.0702771 79.6967541,6.0826808 Z" id="Path-12" fill="#50F24F"></path>
                        <path d="M0,56.5008922 C21.8596649,41.5788069 33.3193362,22.9875032 34.3790141,0.726981306 C40.118941,-0.129093838 51.2065068,0.939062946 79.0253691,5.77551455 C81.6160332,6.22591477 81.8451035,10.335049 79.71258,18.1029172 C89.0917508,21.5419059 93.3893042,24.8177376 92.6052404,27.9304124 C85.8074192,54.917254 76.8141545,67.221288 63.2412547,73.0031709 C47.671959,74.9795007 26.5915408,69.4787411 0,56.5008922 Z" id="Path-9" fill="url(#linearGradient-20)"></path>
                    </g>
                    <g id="pink-" transform="translate(989.781366, 609.555894) rotate(43.000000) translate(-989.781366, -609.555894) translate(890.281366, 526.055894)">
                        <path d="M58.8043248,19.5312235 C63.9620073,51.1189751 41.5891784,83.3865348 13.6831388,106.380958 C37.1464,119.062868 79.740694,136.738487 114.175317,147.465777 C115.813415,147.976088 120.954614,147.349463 122.553125,147.62902 C132.217149,149.319121 137.672615,142.318803 141.352864,140.213044 C156.513901,124.311004 171.432184,112.82901 179.012284,90.5177064 C182.898746,79.078276 185.095382,69.336545 185.187991,65.1530336 C172.896909,53.7528053 143.539803,54.0603849 58.8043248,19.5312235 Z" id="Path-10" fill="url(#linearGradient-21)" transform="translate(99.435565, 83.710469) rotate(-14.000000) translate(-99.435565, -83.710469) "></path>
                        <path d="M138.395453,119.600371 C144.705092,125.782023 138.860927,142.278857 126.461829,141.989937 C139.634577,142.166907 146.740005,137.38047 151.857727,132.578229 C156.975449,127.775988 181.001771,105.484283 178.056379,45.0186608 C178.441913,96.1352311 165.868163,121.088932 138.395453,119.600371 Z" id="Path-11" fill="#F46DA0"></path>
                    </g>
                </g>
            </g>
        </g>
    </g>
</svg>