<svg 
 xmlns="http://www.w3.org/2000/svg"
 xmlns:xlink="http://www.w3.org/1999/xlink"
 width="79px" height="68px">
<path fill-rule="evenodd"  fill="rgb(0, 0, 0)"
 d="M36.611,39.762 C39.037,44.172 39.639,49.282 38.307,54.155 C36.078,62.306 28.749,67.999 20.485,67.999 C20.457,67.999 20.430,67.999 20.403,67.997 C13.704,67.730 8.499,65.054 4.931,60.043 C-1.445,51.088 -0.686,36.860 1.903,27.396 C6.312,11.265 16.762,-0.000 27.314,-0.000 C27.969,-0.000 28.631,0.045 29.280,0.136 C29.877,0.220 30.409,0.564 30.741,1.080 C31.072,1.595 31.168,2.232 31.006,2.826 L29.085,9.856 C28.863,10.667 28.196,11.269 27.382,11.393 C18.591,12.729 14.178,24.599 12.341,31.478 C14.246,30.635 16.704,29.946 19.649,29.946 C21.556,29.946 23.516,30.239 25.477,30.817 C30.256,32.224 34.210,35.402 36.611,39.762 Z"/>
<path fill-rule="evenodd"  fill="rgb(0, 0, 0)"
 d="M78.309,54.155 C76.079,62.306 68.750,67.999 60.486,67.999 C60.457,67.999 60.431,67.999 60.403,67.997 C53.706,67.731 48.499,65.054 44.932,60.044 C38.555,51.087 39.314,36.859 41.902,27.396 C46.312,11.265 56.762,-0.000 67.314,-0.000 C67.971,-0.000 68.632,0.045 69.280,0.136 C69.878,0.220 70.411,0.564 70.741,1.080 C71.073,1.595 71.169,2.232 71.007,2.826 L69.085,9.856 C68.862,10.666 68.196,11.269 67.382,11.392 C58.590,12.729 54.177,24.599 52.340,31.478 C54.246,30.635 56.704,29.946 59.649,29.946 C61.555,29.946 63.516,30.239 65.476,30.816 C70.256,32.223 74.210,35.401 76.610,39.763 C79.036,44.171 79.639,49.282 78.309,54.155 Z"/>
</svg>