<svg xmlns="http://www.w3.org/2000/svg" width="200" height="200" class="icon" version="1.1" viewBox="0 0 1024 1024"><path fill="#FFBC42" d="M500.7872 513.28m-450.816 0a450.816 450.816 0 1 0 901.632 0 450.816 450.816 0 1 0-901.632 0Z"/><path fill="#FFF" d="M500.7872 182.1696c-182.8864 0-331.1104 148.224-331.1104 331.1104s148.224 331.1104 331.1104 331.1104 331.1104-148.224 331.1104-331.1104-148.224-331.1104-331.1104-331.1104z m100.5568 381.184c16.3328 0 29.5936 13.2608 29.5936 29.5936 0 16.3328-13.2608 29.5936-29.5936 29.5936H530.432v26.4192c0 16.3328-13.2608 29.5936-29.5936 29.5936-16.3328 0-29.5936-13.2608-29.5936-29.5936v-26.4192H400.2816c-16.3328 0-29.5936-13.2608-29.5936-29.5936 0-16.3328 13.2608-29.5936 29.5936-29.5936h70.912v-27.9552H400.2816c-16.3328 0-29.5936-13.2608-29.5936-29.5936 0-16.3328 13.2608-29.5936 29.5936-29.5936h43.7248L387.7376 394.3424a29.60896 29.60896 0 0 1 48.7936-33.536l63.5904 92.4672 58.368-89.9584a29.55264 29.55264 0 0 1 40.9088-8.704 29.55264 29.55264 0 0 1 8.704 40.9088L555.776 476.16h45.568c16.3328 0 29.5936 13.2608 29.5936 29.5936 0 16.3328-13.2608 29.5936-29.5936 29.5936H530.432v27.9552h70.912z"/></svg>