<svg xmlns="http://www.w3.org/2000/svg" width="200" height="200" class="icon" version="1.1" viewBox="0 0 1024 1024"><path fill="#6BCC03" d="M0 488.96v-30.72C2.56 430.08 7.68 404.48 15.36 378.88c20.48-66.56 53.76-122.88 99.84-171.52C179.2 138.24 256 94.72 340.48 66.56c48.64-15.36 97.28-23.04 145.92-25.6 40.96-2.56 79.36 0 120.32 7.68 33.28 5.12 64 12.8 97.28 25.6 79.36 28.16 148.48 71.68 207.36 133.12 7.68 7.68 12.8 15.36 20.48 23.04-2.56 0-2.56 2.56-5.12 2.56-20.48 10.24-40.96 20.48-61.44 28.16-143.36 66.56-286.72 133.12-430.08 197.12-28.16 12.8-56.32 10.24-81.92-5.12-20.48-12.8-38.4-25.6-58.88-38.4-12.8-10.24-25.6-17.92-40.96-28.16-12.8-7.68-20.48-2.56-20.48 12.8v2.56c2.56 12.8 5.12 25.6 10.24 38.4 25.6 61.44 51.2 120.32 76.8 181.76 7.68 17.92 20.48 25.6 35.84 23.04 10.24 0 20.48-2.56 28.16-7.68 30.72-15.36 58.88-33.28 87.04-51.2 156.16-92.16 309.76-184.32 465.92-276.48 10.24-7.68 23.04-12.8 33.28-20.48 0 2.56 2.56 2.56 2.56 5.12 5.12 10.24 10.24 17.92 12.8 28.16 28.16 61.44 40.96 125.44 35.84 192-2.56 28.16-7.68 56.32-15.36 84.48-17.92 61.44-48.64 115.2-92.16 163.84-51.2 56.32-115.2 99.84-184.32 128-40.96 15.36-81.92 28.16-122.88 35.84-28.16 5.12-56.32 7.68-81.92 7.68h-46.08c-20.48-2.56-40.96-2.56-58.88-5.12-30.72-5.12-61.44-12.8-89.6-23.04H322.56c-12.8 7.68-23.04 15.36-35.84 23.04-28.16 17.92-53.76 33.28-81.92 48.64-5.12 2.56-12.8 5.12-17.92 5.12s-10.24-2.56-10.24-10.24c0-5.12 0-12.8 2.56-17.92 5.12-38.4 12.8-74.24 20.48-112.64 0-5.12 0-7.68-5.12-10.24-15.36-12.8-30.72-23.04-46.08-38.4-51.2-46.08-92.16-102.4-117.76-166.4C20.48 599.04 12.8 568.32 7.68 537.6c-2.56-12.8-2.56-25.6-2.56-40.96-5.12 0-5.12-2.56-5.12-7.68z"/></svg>