<svg xmlns="http://www.w3.org/2000/svg" width="200" height="200" class="icon" version="1.1" viewBox="0 0 1024 1024"><path fill="#DAE9FF" d="M839.68 286.72m-40.96 0a40.96 40.96 0 1 0 81.92 0 40.96 40.96 0 1 0-81.92 0Z"/><path fill="#3988FF" d="M614.4 622.592s22.528-40.96 47.104-116.736c10.24-30.72 16.384-57.344 20.48-75.776h-114.688s-4.096 32.768-20.48 75.776c-16.384 45.056-28.672 81.92-28.672 81.92s-172.032-69.632-264.192-69.632c-90.112 0-204.8 40.96-212.992 161.792-8.192 120.832 51.2 188.416 143.36 208.896 90.112 22.528 169.984 0 239.616-40.96 71.68-38.912 141.312-131.072 141.312-131.072l368.64 202.752s22.528-38.912 40.96-75.776c18.432-38.912 30.72-79.872 30.72-79.872L614.4 622.592z m-370.688 190.464c-131.072 0-159.744-71.68-159.744-120.832 0-49.152 28.672-106.496 141.312-114.688 112.64-10.24 266.24 88.064 266.24 88.064s-112.64 147.456-247.808 147.456z"/><path fill="#AFCFFF" d="M679.936 428.032c6.144-28.672 6.144-43.008 6.144-43.008l-194.56-2.048v-77.824l237.568-4.096V245.76H491.52V120.832h-114.688V245.76H153.6v55.296l221.184-4.096v83.968H198.656v45.056h368.64c-2.048 2.048 79.872 2.048 112.64 2.048z"/></svg>