<svg xmlns="http://www.w3.org/2000/svg" xmlns:xlink="http://www.w3.org/1999/xlink" width="752" height="88" version="1.1" viewBox="0 0 752 88"><title>banner</title><defs><rect id="path-1" width="752" height="88" x="0" y="0"/></defs><g id="阅读页注册优化" fill="none" fill-rule="evenodd" stroke="none" stroke-width="1"><g id="文章顶部" transform="translate(-345.000000, -100.000000)"><g id="banner" transform="translate(345.000000, 100.000000)"><mask id="mask-2" fill="#fff"><use xlink:href="#path-1"/></mask><use id="矩形" fill="#FAFCFF" xlink:href="#path-1"/><g id="编组" mask="url(#mask-2)"><g transform="translate(26.000000, 46.000000)"><path id="路径-2备份-8" fill="#D4E4D7" d="M560.561857,40.3302057 C560.580763,21.8064269 561.95548,11.4000817 564.686009,9.11117001 C567.416538,6.82225835 570.041821,17.3870259 572.561857,40.8054725 L560.561857,40.3302057 Z"/><path id="路径-2备份-9" fill="#CBE1D0" d="M550.561857,28.3896141 C550.577612,12.1813076 551.72321,3.07575553 553.998651,1.07295783 C556.274092,-0.929839877 558.461827,8.31433169 560.561857,28.8054725 L550.561857,28.3896141 Z"/><path id="路径备份" fill="#E9F0E1" d="M0,56.7215192 C29.9649298,71.4015023 53.5396125,77.8276625 70.724048,76 C96.5007012,73.2585062 114.873926,62.7721398 142.777075,65.9794113 C158.464022,67.782516 167.209502,62.6769728 182.5,65.9794113 C285.002497,88.1178787 396.793935,61.3092431 535.293935,25.1538137 C556.95506,19.4991765 583.285417,13.3430646 608.130159,17.8507021 C642.735357,24.1292012 681.206242,11.1790611 722.679985,1.28902446 C732.134802,-0.965618586 746.574807,0.4380301 766,5.49997052 L766,73.4046566 L14,73.4046566 L0,56.7215192 Z"/></g></g><g id="编组-3" stroke="#D4E3EE" stroke-linecap="round" stroke-linejoin="round" stroke-width="2" mask="url(#mask-2)"><g transform="translate(549.000000, 12.000000)"><path id="路径-3备份-5" d="M91.6424262,22 C95.828438,19.0284218 100.241719,19.0284218 104.882271,22 C106.954478,16.6666667 109.87453,14 113.642426,14" opacity=".509" transform="translate(102.642426, 18.000000) rotate(-360.000000) translate(-102.642426, -18.000000)"/><path id="路径-3备份-6" d="M69.6424262,8 C73.828438,5.02842182 78.2417195,5.02842182 82.8822705,8 C84.9544777,2.66666667 87.8745296,0 91.6424262,0" opacity=".509" transform="translate(80.642426, 4.000000) rotate(-360.000000) translate(-80.642426, -4.000000)"/><path id="路径-3备份-7" d="M113.642426,38 C118.342958,34.7004593 123.532266,34.3983917 129.21035,37.0937971 C131.070117,31.775978 134.115512,29.1170685 138.346536,29.1170685" opacity=".578" transform="translate(125.994481, 33.558534) rotate(-2.000000) translate(-125.994481, -33.558534)"/></g></g></g></g></g></svg>