<svg xmlns="http://www.w3.org/2000/svg" width="60" height="50" viewBox="0 0 60 50"><defs><style>.cls-1{opacity:.05}.cls-2{fill-rule:evenodd}</style></defs><g id="Icon" class="cls-1"><path id="Path" d="M344.162,8248.24a13.555,13.555,0,0,1,1.305,10.58,14.248,14.248,0,0,1-13.71,10.18h-0.063c-5.152-.2-9.157-2.17-11.9-5.85-4.905-6.59-4.321-17.05-2.33-24.01,3.392-11.86,11.431-20.14,19.548-20.14a10.93,10.93,0,0,1,1.512.1,1.6,1.6,0,0,1,1.124.69,1.55,1.55,0,0,1,.2,1.29l-1.478,5.17a1.618,1.618,0,0,1-1.31,1.13c-6.762.98-10.157,9.71-11.57,14.76a14.363,14.363,0,0,1,5.621-1.12,16.366,16.366,0,0,1,4.484.64A14.208,14.208,0,0,1,344.162,8248.24Z" class="cls-2" transform="translate(-316 -8219)"/><path id="Path-2" d="M375.468,8258.82a14.249,14.249,0,0,1-13.71,10.18H361.7c-5.152-.2-9.157-2.17-11.9-5.85-4.9-6.59-4.322-17.05-2.331-24.01,3.392-11.86,11.431-20.14,19.548-20.14a10.9,10.9,0,0,1,1.512.1,1.6,1.6,0,0,1,1.124.69,1.55,1.55,0,0,1,.2,1.29l-1.478,5.17a1.618,1.618,0,0,1-1.31,1.13c-6.763.98-10.157,9.71-11.571,14.76a14.374,14.374,0,0,1,5.623-1.12,16.352,16.352,0,0,1,4.482.64,14.207,14.207,0,0,1,8.565,6.58A13.568,13.568,0,0,1,375.468,8258.82Z" class="cls-2" data-name="Path" transform="translate(-316 -8219)"/></g></svg>