<svg xmlns="http://www.w3.org/2000/svg" xmlns:xlink="http://www.w3.org/1999/xlink" width="24" height="16" version="1.1" viewBox="0 0 24 16"><title>引用-文章详情-默认</title><desc>Created with Sketch.</desc><g id="Page-1" fill="none" fill-rule="evenodd" stroke="none" stroke-width="1"><g id="爱范儿社区规则" fill="#F13B03" transform="translate(-336.000000, -758.000000)"><g id="Group-8" transform="translate(320.000000, 742.000000)"><g id="Group-2" transform="translate(16.000000, 16.000000)"><path id="Combined-Shape" d="M14.4063535,8.66257781 L14.392021,8.64017124 L19.1438545,0.428494851 C19.3810213,0.0186452443 19.9053827,-0.121579469 20.3154664,0.115182434 C20.7267002,0.352608391 20.8701542,0.876838288 20.6371078,1.29056971 L17.7989651,6.32917378 C18.1404704,6.26129854 18.4944214,6.2256146 18.8571429,6.2256146 C21.6974644,6.2256146 24,8.4136853 24,11.1128073 C24,13.8119293 21.6974644,16 18.8571429,16 C16.0168213,16 13.7142857,13.8119293 13.7142857,11.1128073 C13.7142857,10.2198972 13.9662719,9.38291578 14.4063535,8.66257781 Z M0.613450317,8.79603464 L0.593381055,8.76900572 L5.42895375,0.428149345 C5.66650718,0.018394563 6.19098361,-0.121634236 6.60116401,0.115183528 C7.01239783,0.352609485 7.15585185,0.876839382 6.9228054,1.29057081 L4.08466135,6.32917736 C4.42617217,6.2612998 4.78012929,6.2256146 5.14285714,6.2256146 C7.98317871,6.2256146 10.2857143,8.4136853 10.2857143,11.1128073 C10.2857143,13.8119293 7.98317871,16 5.14285714,16 C2.30253557,16 0,13.8119293 0,11.1128073 C0,10.2745052 0.222107093,9.48550011 0.613450317,8.79603464 Z"/></g></g></g></g></svg>