<svg xmlns="http://www.w3.org/2000/svg" viewBox="0 0 400 400" width="400" height="400" style="width:100%;height:100%;transform:translate3d(0,0,0);content-visibility:visible"><defs><clipPath id="a"><path d="M0 0h400v400H0z"/></clipPath></defs><title>Mediator (INFP) personality</title><g clip-path="url(#a)"><g opacity=".1" style="display:block"><path fill="#2B2B2B" d="m270.99 390.02-80.89-13.43-98.33 10.3L167.91 400l103.08-9.98z" opacity="1"/></g><g style="display:block"><path fill="#DFBCA4" d="m246.35 122.39 35.591-14.19-24.061-76.5-9.37-4.75-9.58-4.61-14.55-5.62-10.95 16.42-2.229-1.15-4.46 9.22 21.099 87.73 18.51-6.55z"/><path fill="#C3977A" d="m206.81 41.35 21.03 87.59-3.02 3.25-8 1.08-5.62-6.99-3.959-10.01-2.381-26.37 1.95-48.55z"/><path fill="#C3977A" d="m206.81 41.351 21.03 87.589-3.02 3.25-20.98 2.841-24.64-75.877 27.61-17.803z"/><path fill="#DFBCA4" d="m246.35 122.39 35.591-14.19-24.061-76.5-9.37-4.75-9.58-4.61-14.55-5.62-10.95 16.42-2.229-1.15-4.46 9.22 21.099 87.73 18.51-6.55z"/><path fill="#8A6651" d="m250.531 81.11-1.222 5.26-3.75-3.74 4.972-1.52z"/><path fill="#E8EF78" d="m257.95 31.7-4.97-14.19L218.26 0l-2.23 16.93 8.35-.21 14.549 5.62 9.581 4.61 9.44 4.75z"/><path fill="#D9E253" d="m218.26 0-49.49 16.43-13.03 34.65-4.61 9.51 13.9-4.83 13.83-4.61 13.83-4.9 14.12-4.9 6.62-8.21 10.95-16.42L218.26 0z"/><path fill="#B8C645" d="m206.81 41.35-13.76 4.83-14.19 4.97-13.83 4.61-13.9 4.83-4.04 67.78 42.773 10.365 16.342-50.987.44-40.388.165-6.01z"/><path fill="#8A6651" d="m216.821 133.27 11.519 20.96 18.009-31.84-18.509 6.55-11.019 4.33z"/><path fill="#C3977A" d="m239.58 51.44 7.21 19.59 13.03-23.34-20.24 3.75zM234.76 52.3l-17.22 12.75 14.62 1.87 13.4 15.71-10.8-30.33z"/><path fill="#B8C645" d="m234.76 52.3-16.14 7.13-1.08 5.62 17.22-12.75zM239.58 51.44l18.66-6.78 1.58 3.03-20.24 3.75z"/><path fill="#E8C9B6" d="m234.76 52.3 10.799 30.33 4.971-1.52-3.685-9.985-7.266-19.685-4.819.86z"/></g><g style="display:block"><path fill="#99C26C" d="M267.03 89.54 252.4 99.7l-19.011.5 20.531 5.12 13.11-15.78z"/><path fill="#5A753C" d="m267.03 89.54-5.98 2.16-8.291 1.37-5.33 1.8-6.259 3.6-7.781 1.73 19.011-.5 14.63-10.16z"/></g><g style="display:block"><path fill="#99C26C" d="m155.88 208.321-10.44 44.38-7.73-12.04.81-10.141-5.033-16.241 22.393-5.958z"/><path fill="#738D56" d="m156.49 166.63-23.002 47.648 37.769-10.143-14.767-37.505z"/></g><g style="display:block"><path fill="#DFBCA4" d="m145.44 252.701-9.04.93-10.74-3.08 12.87-20.04 6.91 22.19z"/><path fill="#C3977A" d="m136.4 253.631-18.89-15.64-3.17 12.38 8.35 4.75 13.71-1.49z"/></g><g style="display:block"><path fill="#DFBCA4" d="m190.31 351.38-2.869 2.133-12.251 9.107 14.91 29.25 9.58-31.92-9.37-8.57z"/><path fill="#C3977A" d="m190.1 391.87 16.99-.37-14.04-9.58-2.95 9.95z"/><path fill="#8A6651" d="m199.68 359.95-13.04-5.76 3.02-3.31 6.141 5.559 3.879 3.511z"/></g><g style="display:block"><path fill="#DFBCA4" d="m129.37 295.92-13.18-4.76-7.13 39.26 29.82-25.86-9.51-8.64z"/><path fill="#C3977A" d="m117.56 323.07 2.88 16.64-11.38-9.29 8.5-7.35z"/><path fill="#8A6651" d="m129.37 295.92 3.1 14.26 6.41-5.62-6.009-5.459-3.501-3.181z"/></g><g style="display:block"><path fill="#2B2B2B" d="M255 56.62a4 4 0 0 0 0 8 4.088 4.088 0 0 0 4.099-4 3.998 3.998 0 0 0-3.998-4H255zM228.49 66.2a4.16 4.16 0 0 0-4.11 4.111 4.09 4.09 0 0 0 4.11 4 4 4 0 0 0 4-4 4.09 4.09 0 0 0-4-4.111z"/></g><g style="display:block"><path fill="#5A753C" d="m155.615 167.879 22.14 57.66 13.33 4.101c14.037-.648 38.737.556 38.737.556l-3.179-67.626-9.407-17.88-40.044-2.675-21.577 25.864z"/><path fill="#99C26C" d="m229.62 228.519-51.99-3.478 3.25 8.638 19.16 13.761 32.05 1.439-.25-2.215-2.22-18.145z"/></g><g style="display:block"><path fill="#53AF8A" d="m180.88 233.68-25.94 33.28 34 5.691 43.15-23.771-51.21-15.2z"/><path fill="#3E8F6E" d="m154.94 266.96 15.63 23.19-8.21 24.21 42.65 26.79 27.08-92.27-77.15 18.08z"/></g><path fill="#35785D" d="m3.38-34.9-41.2 5.77L32.49 34.9l5.33-18.8-34.44-51z" transform="translate(167.19 325.05)" style="display:block"/><g style="display:block"><path fill="#35785D" d="m262.49 22.12-9.51-4.61-4.68 9.51 9.65 4.68 4.54-9.58z"/><path fill="#53AF8A" d="m248.51 26.95-9.58-4.61-4.609 9.5 9.66 4.69 4.529-9.58z"/><path fill="#35785D" d="m234.679 31.7-9.649-4.68-4.54 9.58 9.509 4.61 4.68-9.51z"/><path fill="#53AF8A" d="m220.71 36.6-9.51-4.61-4.68 9.58 9.58 4.61 4.61-9.58z"/><path fill="#35785D" d="m206.81 41.35-9.58-4.68-4.54 9.58 9.58 4.61 4.54-9.51z"/><path fill="#53AF8A" d="m193.05 46.18-9.51-4.68-4.68 9.65 9.65 4.54 4.54-9.51z"/><path fill="#35785D" d="m179.22 50.86-9.65-4.61-4.54 9.51 9.58 4.68 4.61-9.58z"/><path fill="#53AF8A" d="m165.32 55.69-9.58-4.61-4.61 9.51 9.5 4.68 4.69-9.58z"/></g><path fill="#99C26C" d="m-24.531-11.96 43.44-12.46 4.111 3.75 1.51 4.82-47.401 40.27-1.66-36.38z" transform="translate(254.96 224.46)" style="display:block"/><path fill="#738D56" d="m18.57-32.07 3.075 64.915-43.29-65.69 17.861.76 22.354.015z" transform="translate(210.445 216.035)" style="display:block"/><g style="display:block"><path fill="#DFBCA4" d="m273.87 200.04 6.84-7.06 8.72 6.49 9.51-15.42h2.59l-4.471 20.6-17.569 3.96-5.62-8.57z"/><path fill="#8A6651" d="m277.25 196.44 19.81 8.21 3.82-9.29.65-11.31h-2.59l-6.27 7.85-3.24 7.57-4.11-4.9-4.61-1.59-3.46 3.46z"/><path fill="#738D56" d="m305.06 204.94.29 18.58h-3.75l.29-18.58h3.17z"/><path fill="#B8C645" d="m303.04 168.85 1.52-18.15-21.18 5.69 11.96 12.46h7.7zM295.34 172.16l-19.96-9.15-7.13 18.01 27.09-3.17v-5.69zM295.34 181.02l-23.271 5.33 17.36 13.12 9.511-15.42h-3.6v-3.03zM301.531 184.05l-4.471 20.601 18.301.29-8.431-20.891h-5.399zM310.611 184.05l14.039 18.58 11.739-11.38-25.778-11.52v4.32zM310.61 177.28l27.22 6.48 2.74-15.34-29.96 5.33v3.53zM310.61 171.23l23.189-12.18-15.769-9.58-12.61 19.38h5.19v2.38z"/><path fill="#5A753C" d="M310.609 184.05h-15.27v-15.2h15.27v15.2z"/><path fill="#D9E253" d="m303.04 168.85-7.7 7.64 7.7 7.56 7.57-7.56-7.57-7.64z"/></g><g style="display:block"><path fill="#D9E354" d="m205.5 113.5-3.5 62 4.5 9.25 7.508-8.75-3.182-51.04-5.326-11.46z"/><path fill="#D9E253" d="m207.24 116.27 21.1 37.96 16.14 29.82-37.82.65.58-68.43zM199.819 74.27l-44.08 94.36-26.87-14.04 18.22-26.22 55.18-77.51-2.45 23.41z"/><path fill="#B8C645" d="m199.819 74.27-14.566 31.181-29.514 63.179 27.634 12.17 5.426 2.39 3.74-37.25 6.42-28.38.86-43.29z"/><path fill="#E8EF78" d="M202.27 50.86 188.8 183.19l17.861 1.51.58-68.43-.5-75.06-4.471 9.65z"/><path fill="#5A753C" d="m206.88 69.44-7.06 4.83-1.66 16.86 8.86-5.98-.14-15.71z"/><path fill="#99C26C" d="m207.019 85.15-8.859 5.98-1.221 12.24 10.15-5.62-.07-12.6z"/><path fill="#5A753C" d="m207.09 97.75-10.15 5.62-1.44 13.62 11.67-6.49-.08-12.75z"/><path fill="#99C26C" d="m207.17 110.5-11.67 6.49-1.51 15.05 13.18-7.56V110.5z"/><path fill="#5A753C" d="m207.17 124.48-13.18 7.56-1.45 13.9 14.55-8.06.08-13.4z"/></g><g style="display:block"><path fill="#3E8F6E" d="m96.24 183.83-5.05-31.04-15.05 21.46 20.1 9.58z"/><path fill="#53AF8A" d="m76.14 174.25-20.96-14.4 4.97 30.11 15.99-15.71z"/><path fill="#738D56" d="m92.56 192.76-16.42-18.51.65 8.79 2.38 6.56 13.39 3.16z"/><path fill="#99C26C" d="m76.14 174.25-9 22.84 12.03-7.49-3.03-15.35z"/></g><g style="display:block"><path fill="#3E8F6E" d="M334.34 29.43 318.999 2.06l-6.769 25.28 22.11 2.09z"/><path fill="#53AF8A" d="m312.231 27.34-24.642-6.27L302.5 47.58l9.731-20.24z"/><path fill="#738D56" d="m333.98 39.23-21.75-11.89 2.949 8 5.12 5.4 13.681-1.51z"/><path fill="#99C26C" d="m312.231 27.34-.65 24.64 8.718-11.24-8.068-13.4z"/></g><g style="display:block"><path fill="#3E8F6E" d="m98 31.91 15.27-27.44 6.85 25.28L98 31.91z"/><path fill="#53AF8A" d="m120.12 29.75 24.63-6.26-14.98 26.5-9.65-20.24z"/><path fill="#738D56" d="m98.36 41.57 21.76-11.82-4.11 9.3-4.03 4.1-13.62-1.58z"/><path fill="#99C26C" d="m120.12 29.75.64 24.64-8.78-11.24 8.14-13.4z"/></g></g></svg>