<svg version="1.1" fill="#fff" viewBox="0 0 32 32" xmlns="http://www.w3.org/2000/svg" xmlns:xlink="http://www.w3.org/1999/xlink">
 <title>Vaultwarden Icon - White</title>
 <path d="m9.4 5.9-3 3.9e-4 8 22h2.8l8-22h-3l-5.1 14c-0.34 0.91-0.64 1.8-0.86 2.6-0.23 0.8-0.42 1.6-0.59 2.3-0.15-0.75-0.34-1.5-0.59-2.4-0.23-0.8-0.52-1.7-0.86-2.7l-5.1-14z" stroke-width=".54"/>
 <path d="m16 0.024a0.46 0.46 0 0 0-0.24 0.2l-0.8 1.3c-0.14 0.012-0.28 0.025-0.43 0.041l-1.1-1.2a0.46 0.46 0 0 0-0.75 0.16l-0.54 1.5c-0.14 0.04-0.27 0.08-0.41 0.12l-1.3-0.96a0.46 0.46 0 0 0-0.75 0.3l-0.24 1.6c-0.12 0.064-0.25 0.13-0.37 0.2l-1.4-0.7a0.46 0.46 0 0 0-0.64 0.43l0.075 1.6c-0.11 0.086-0.21 0.18-0.32 0.26l-1.6-0.39a0.46 0.46 0 0 0-0.54 0.54l0.39 1.6c-0.091 0.11-0.18 0.21-0.26 0.32l-1.6-0.075a0.46 0.46 0 0 0-0.43 0.64l0.7 1.4c-0.07 0.12-0.13 0.25-0.2 0.37l-1.6 0.24a0.46 0.46 0 0 0-0.3 0.75l0.96 1.3c-0.043 0.13-0.086 0.27-0.12 0.41l-1.5 0.54a0.46 0.46 0 0 0-0.16 0.75l1.2 1.1c-0.016 0.14-0.029 0.28-0.041 0.43l-1.3 0.8a0.46 0.46 0 0 0 0 0.8l1.3 0.8c0.012 0.14 0.025 0.28 0.041 0.43l-1.2 1.1a0.46 0.46 0 0 0 0.16 0.75l1.5 0.54c0.04 0.14 0.08 0.27 0.12 0.41l-0.96 1.3a0.46 0.46 0 0 0 0.3 0.75l1.6 0.24c0.064 0.12 0.13 0.25 0.2 0.37l-0.7 1.4a0.46 0.46 0 0 0 0.43 0.64l1.6-0.075c0.086 0.11 0.18 0.21 0.26 0.32l-0.39 1.6a0.46 0.46 0 0 0 0.54 0.54l1.6-0.39c0.11 0.091 0.21 0.18 0.32 0.26l-0.075 1.6a0.46 0.46 0 0 0 0.64 0.43l1.4-0.7c0.12 0.07 0.25 0.13 0.37 0.2l0.24 1.6a0.46 0.46 0 0 0 0.75 0.3l1.3-0.96c0.13 0.043 0.27 0.086 0.41 0.12l0.54 1.5a0.46 0.46 0 0 0 0.75 0.16l1.1-1.2c0.14 0.016 0.28 0.029 0.43 0.041l0.8 1.3a0.46 0.46 0 0 0 0.8 0l0.8-1.3c0.14-0.012 0.28-0.025 0.43-0.041l1.1 1.2a0.46 0.46 0 0 0 0.75-0.16l0.54-1.5c0.14-0.04 0.27-0.08 0.41-0.12l1.3 0.96a0.46 0.46 0 0 0 0.75-0.3l0.24-1.6c0.12-0.064 0.25-0.13 0.37-0.2l1.4 0.7a0.46 0.46 0 0 0 0.64-0.43l-0.075-1.6c0.11-0.086 0.21-0.18 0.32-0.26l1.6 0.39a0.46 0.46 0 0 0 0.54-0.54l-0.39-1.6c0.091-0.11 0.18-0.21 0.26-0.32l1.6 0.075a0.46 0.46 0 0 0 0.43-0.64l-0.7-1.4c0.07-0.12 0.13-0.25 0.2-0.37l1.6-0.24a0.46 0.46 0 0 0 0.3-0.75l-0.96-1.3c0.043-0.13 0.086-0.27 0.12-0.41l1.5-0.54a0.46 0.46 0 0 0 0.16-0.75l-1.2-1.1c0.016-0.14 0.029-0.28 0.041-0.43l1.3-0.8a0.46 0.46 0 0 0 0-0.8l-1.3-0.8c-0.012-0.14-0.025-0.28-0.041-0.43l1.2-1.1a0.46 0.46 0 0 0-0.16-0.75l-1.5-0.54c-0.04-0.14-0.08-0.27-0.12-0.41l0.96-1.3a0.46 0.46 0 0 0-0.3-0.75l-1.6-0.24c-0.064-0.12-0.13-0.25-0.2-0.37l0.7-1.4a0.46 0.46 0 0 0-0.43-0.64l-1.6 0.075c-0.086-0.11-0.18-0.21-0.26-0.32l0.39-1.6a0.46 0.46 0 0 0-0.54-0.54l-1.6 0.39c-0.11-0.091-0.21-0.18-0.32-0.26l0.075-1.6a0.46 0.46 0 0 0-0.64-0.43l-1.4 0.7c-0.12-0.07-0.25-0.13-0.37-0.2l-0.24-1.6a0.46 0.46 0 0 0-0.75-0.3l-1.3 0.96c-0.13-0.043-0.27-0.086-0.41-0.12l-0.54-1.5a0.46 0.46 0 0 0-0.75-0.16l-1.1 1.2c-0.14-0.016-0.28-0.029-0.43-0.041l-0.8-1.3a0.46 0.46 0 0 0-0.54-0.2zm0.16 2.9a0.91 0.91 0 0 1 0.91 0.91 0.91 0.91 0 0 1-0.91 0.91 0.91 0.91 0 0 1-0.91-0.91 0.91 0.91 0 0 1 0.91-0.91zm-2.1 1.6 1.5 1.5a0.91 0.91 0 0 0 1.3 0l1.5-1.5c3.5 0.64 6.4 2.9 8 5.9l-0.96 1.9a0.91 0.91 0 0 0 0.4 1.2l1.9 0.96c0.064 0.49 0.096 1 0.096 1.5 0 3.1-1.2 5.9-3.2 8l-2.1-0.34a0.91 0.91 0 0 0-1.1 0.75l-0.34 2.1c-1.5 0.7-3.2 1.1-5 1.1-1.8 0-3.5-0.41-5-1.1l-0.34-2.1a0.91 0.91 0 0 0-1.1-0.75l-2.1 0.34c-2-2.1-3.2-4.9-3.2-8 0-0.51 0.034-1 0.096-1.5l1.9-0.96a0.91 0.91 0 0 0 0.4-1.2l-0.96-1.9c1.7-3.1 4.6-5.2 8-5.9zm-9.6 7a0.91 0.91 0 0 1 0.26 0.044 0.91 0.91 0 0 1 0.59 1.2 0.91 0.91 0 0 1-1.2 0.59 0.91 0.91 0 0 1-0.59-1.2 0.91 0.91 0 0 1 0.91-0.64zm23 0a0.91 0.91 0 0 1 0.91 0.64 0.91 0.91 0 0 1-0.59 1.2 0.91 0.91 0 0 1-1.2-0.59 0.91 0.91 0 0 1 0.59-1.2 0.91 0.91 0 0 1 0.26-0.044zm-19 13a0.91 0.91 0 0 1 0.49 0.17 0.91 0.91 0 0 1 0.2 1.3 0.91 0.91 0 0 1-1.3 0.2 0.91 0.91 0 0 1-0.2-1.3 0.91 0.91 0 0 1 0.8-0.37zm14 0a0.91 0.91 0 0 1 0.8 0.37 0.91 0.91 0 0 1-0.2 1.3 0.91 0.91 0 0 1-1.3-0.2 0.91 0.91 0 0 1 0.2-1.3 0.91 0.91 0 0 1 0.49-0.17z" stroke-width=".54"/>
</svg>
