<svg version="1.1" viewBox="0 0 290 60" xmlns="http://www.w3.org/2000/svg">
  <title>Vaultwarden</title>
  <path class="tw-fill-marketing-logo" d="m166 46-4.2-13q-.4-1.2-1.5-5.6h-.17q-.83 3.6-1.5 5.6l-4.3 13h-4l-6.2-23h3.6q2.2 8.6 3.3 13 1.2 4.5 1.3 6.1h.17q.23-1.2.73-3.1.52-1.9.89-3l4.2-13h3.7l4.1 13q1.2 3.6 1.6 6h.17q.083-.75.44-2.3.37-1.6 4.3-17h3.6l-6.3 23zm29 0-.69-3.2h-.17q-1.7 2.1-3.4 2.9-1.7.75-4.2.75-3.4 0-5.3-1.7-1.9-1.7-1.9-5 0-6.9 11-7.2l3.9-.12v-1.4q0-2.7-1.2-4-1.1-1.3-3.7-1.3-2.8 0-6.4 1.7l-1.1-2.6q1.7-.92 3.7-1.4 2-.52 4-.52 4.1 0 6 1.8 2 1.8 2 5.8v16zm-7.8-2.4q3.2 0 5.1-1.8 1.9-1.8 1.9-4.9v-2.1l-3.5.15q-4.1.15-5.9 1.3-1.8 1.1-1.8 3.5 0 1.9 1.1 2.8 1.1.98 3.2.98zm28-21q1.5 0 2.7.25l-.48 3.2q-1.4-.31-2.5-.31-2.8 0-4.7 2.2-2 2.2-2 5.6v12h-3.5v-23h2.8l.4 4.2h.17q1.3-2.2 3.1-3.4 1.8-1.2 3.9-1.2zm22 20h-.19q-2.4 3.5-7.2 3.5-4.5 0-7-3.1-2.5-3.1-2.5-8.7 0-5.6 2.5-8.8 2.5-3.1 6.9-3.1 4.6 0 7.1 3.4h.27l-.15-1.6-.083-1.6v-9.3h3.5v32h-2.8zm-6.9.58q3.5 0 5.1-1.9 1.6-1.9 1.6-6.2v-.73q0-4.8-1.6-6.9-1.6-2.1-5.1-2.1-3 0-4.7 2.4-1.6 2.3-1.6 6.7 0 4.4 1.6 6.6 1.6 2.2 4.7 2.2zm27 2.9q-5.1 0-8-3.1-2.9-3.1-2.9-8.5 0-5.5 2.7-8.8 2.7-3.2 7.3-3.2 4.3 0 6.8 2.8 2.5 2.8 2.5 7.4v2.2h-16q.1 4 2 6.1 1.9 2.1 5.4 2.1 3.7 0 7.3-1.5v3.1q-1.8.79-3.5 1.1-1.6.35-3.9.35zm-.94-21q-2.7 0-4.4 1.8-1.6 1.8-1.9 4.9h12q0-3.3-1.5-5-1.5-1.7-4.2-1.7zm31 20v-15q0-2.8-1.3-4.2-1.3-1.4-4-1.4-3.6 0-5.2 1.9-1.7 1.9-1.7 6.4v12h-3.5v-23h2.8l.56 3.1h.17q1.1-1.7 3-2.6 1.9-.94 4.3-.94 4.1 0 6.2 2 2.1 2 2.1 6.3v15z"/>
  <path class="tw-fill-marketing-logo" d="m77 46-1.2-3.2h-.17q-1.6 2-3.3 2.8-1.7.77-4.4.77-3.3 0-5.3-1.9-1.9-1.9-1.9-5.4 0-3.7 2.6-5.4 2.6-1.8 7.8-2l4-.12v-1q0-3.5-3.6-3.5-2.8 0-6.6 1.7l-2.1-4.3q4-2.1 8.9-2.1 4.7 0 7.2 2 2.5 2 2.5 6.2v15zm-1.9-11-2.5.083q-2.8.083-4.1 1-1.4.92-1.4 2.8 0 2.7 3.1 2.7 2.2 0 3.5-1.3 1.3-1.3 1.3-3.4zm29 11-.85-3h-.33q-1 1.6-2.9 2.5-1.9.87-4.3.87-4.1 0-6.2-2.2-2.1-2.2-2.1-6.3v-15h6.3v14q0 2.5.89 3.8.89 1.2 2.8 1.2 2.7 0 3.8-1.8 1.2-1.8 1.2-5.9v-11h6.3v23zm18 0h-6.3v-32h6.3zm16-4.6q1.7 0 4-.73v4.7q-2.4 1.1-5.8 1.1-3.8 0-5.6-1.9-1.7-1.9-1.7-5.8v-11h-3v-2.7l3.5-2.1 1.8-4.9h4.1v4.9h6.5v4.8h-6.5v11q0 1.4.75 2 .77.64 2 .64z"/>
  <path class="tw-fill-marketing-logo" d="m18 11-5.6.00073 15 42h5.3l15-42h-5.6l-9.5 27c-.63 1.7-1.2 3.4-1.6 4.9-.43 1.5-.79 2.9-1.1 4.3-.28-1.4-.63-2.8-1.1-4.4-.43-1.5-.97-3.2-1.6-5l-9.5-27z"/>
  <path class="tw-fill-marketing-logo" d="m30 .05a.85.85 0 00-.44.37l-1.5 2.5c-.27.022-.53.046-.8.076l-2-2.2a.85.85 0 00-1.4.29l-1 2.8c-.26.074-.51.15-.77.23l-2.4-1.8a.85.85 0 00-1.4.56l-.44 2.9c-.23.12-.47.24-.7.37l-2.7-1.3a.85.85 0 00-1.2.81l.14 3c-.2.16-.4.33-.6.49l-2.9-.72a.85.85 0 00-1 1l.72 2.9c-.17.2-.33.4-.49.6l-3-.14a.85.85 0 00-.81 1.2l1.3 2.7c-.13.23-.25.46-.37.7l-2.9.44a.85.85 0 00-.56 1.4l1.8 2.4c-.081.25-.16.51-.23.77l-2.8 1a.85.85 0 00-.29 1.4l2.2 2c-.03.26-.054.53-.076.8l-2.5 1.5a.85.85 0 000 1.5l2.5 1.5c.022.27.046.53.076.8l-2.2 2a.85.85 0 00.29 1.4l2.8 1c.074.26.15.51.23.77l-1.8 2.4a.85.85 0 00.56 1.4l2.9.44c.12.23.24.47.37.7l-1.3 2.7a.85.85 0 00.81 1.2l3-.14c.16.2.33.4.49.6l-.72 2.9a.85.85 0 001 1l2.9-.72c.2.17.4.33.6.49l-.14 3a.85.85 0 001.2.81l2.7-1.3c.23.13.46.25.7.37l.44 2.9a.85.85 0 001.4.56l2.4-1.8c.25.081.51.16.77.23l1 2.8a.85.85 0 001.4.29l2-2.2c.26.03.53.054.8.076l1.5 2.5a.85.85 0 001.5 0l1.5-2.5c.27-.022.53-.046.8-.076l2 2.2a.85.85 0 001.4-.29l1-2.8c.26-.074.51-.15.77-.23l2.4 1.8a.85.85 0 001.4-.56l.44-2.9c.23-.12.47-.24.7-.37l2.7 1.3a.85.85 0 001.2-.81l-.14-3c.2-.16.4-.33.6-.49l2.9.72a.85.85 0 001-1l-.72-2.9c.17-.2.33-.4.49-.6l3 .14a.85.85 0 00.81-1.2l-1.3-2.7c.13-.23.25-.46.37-.7l2.9-.44a.85.85 0 00.56-1.4l-1.8-2.4c.081-.25.16-.51.23-.77l2.8-1a.85.85 0 00.29-1.4l-2.2-2c.03-.26.054-.53.076-.8l2.5-1.5a.85.85 0 000-1.5l-2.5-1.5c-.022-.27-.046-.53-.076-.8l2.2-2a.85.85 0 00-.29-1.4l-2.8-1c-.074-.26-.15-.51-.23-.77l1.8-2.4a.85.85 0 00-.56-1.4l-2.9-.44c-.12-.23-.24-.47-.37-.7l1.3-2.7a.85.85 0 00-.81-1.2l-3 .14c-.16-.2-.33-.4-.49-.6l.72-2.9a.85.85 0 00-1-1l-2.9.72c-.2-.17-.4-.33-.6-.49l.14-3a.85.85 0 00-1.2-.81l-2.7 1.3c-.23-.13-.46-.25-.7-.37l-.44-2.9a.85.85 0 00-1.4-.56l-2.4 1.8c-.25-.081-.51-.16-.77-.23l-1-2.8a.85.85 0 00-1.4-.29l-2 2.2c-.26-.03-.53-.054-.8-.076l-1.5-2.5a.85.85 0 00-1-.37zm.29 5.4a1.7 1.7 0 011.7 1.7 1.7 1.7 0 01-1.7 1.7 1.7 1.7 0 01-1.7-1.7 1.7 1.7 0 011.7-1.7zm-4 2.9 2.8 2.8a1.7 1.7 0 002.4 0l2.8-2.8c6.6 1.2 12 5.4 15 11l-1.8 3.6a1.7 1.7 0 00.75 2.3l3.6 1.8c.12.92.18 1.9.18 2.8 0 5.8-2.3 11-6 15l-4-.63a1.7 1.7 0 00-2 1.4l-.63 4c-2.8 1.3-6 2.1-9.4 2.1-3.4 0-6.5-.76-9.4-2.1l-.63-4a1.7 1.7 0 00-2-1.4l-4 .63c-3.7-3.9-6-9.2-6-15 0-.96.064-1.9.18-2.8l3.6-1.8a1.7 1.7 0 00.75-2.3l-1.8-3.6c3.1-5.7 8.6-9.8 15-11zm-18 13a1.7 1.7 0 01.48.083 1.7 1.7 0 011.1 2.2 1.7 1.7 0 01-2.2 1.1 1.7 1.7 0 01-1.1-2.2 1.7 1.7 0 011.7-1.2zm43 0a1.7 1.7 0 011.7 1.2 1.7 1.7 0 01-1.1 2.2 1.7 1.7 0 01-2.2-1.1 1.7 1.7 0 011.1-2.2 1.7 1.7 0 01.48-.083zm-35 25a1.7 1.7 0 01.91.32 1.7 1.7 0 01.38 2.4 1.7 1.7 0 01-2.4.38 1.7 1.7 0 01-.38-2.4 1.7 1.7 0 011.5-.7zm27 0a1.7 1.7 0 011.5.7 1.7 1.7 0 01-.38 2.4 1.7 1.7 0 01-2.4-.38 1.7 1.7 0 01.38-2.4 1.7 1.7 0 01.91-.32z"/>
</svg>
